<svg width="110" height="135" viewBox="0 0 110 135" fill="none" xmlns="http://www.w3.org/2000/svg">
<path d="M98.75 57.918C97.5977 57.918 96.668 58.8477 96.668 60C96.668 71.051 92.2774 81.648 84.461 89.461C76.6485 97.2774 66.051 101.668 55 101.668C43.949 101.668 33.352 97.2774 25.539 89.461C17.7226 81.6485 13.332 71.051 13.332 60C13.332 48.949 17.7226 38.352 25.539 30.539C33.3515 22.7226 43.949 18.332 55 18.332C56.1523 18.332 57.082 17.4023 57.082 16.25C57.082 15.0977 56.1523 14.168 55 14.168C42.844 14.168 31.188 18.9961 22.59 27.59C13.9962 36.1877 9.16803 47.844 9.16803 60C9.16803 72.156 13.9961 83.812 22.59 92.41C31.1877 101.004 42.844 105.832 55 105.832C67.156 105.832 78.812 101.004 87.41 92.41C96.0038 83.8123 100.832 72.156 100.832 60C100.832 59.4492 100.613 58.918 100.223 58.5273C99.832 58.1366 99.3009 57.918 98.75 57.918Z" fill="black"/>
<path d="M66.324 19.8906C67.4334 20.2031 68.5818 19.5586 68.8943 18.4492C69.2068 17.3437 68.5623 16.1914 67.4529 15.8789C66.0662 15.4883 64.6326 15.1601 63.199 14.8984C62.6482 14.7812 62.074 14.8906 61.6052 15.2031C61.1364 15.5195 60.8161 16.0078 60.7146 16.5625C60.613 17.1172 60.7419 17.6914 61.07 18.1484C61.3982 18.6054 61.8982 18.914 62.4567 18.9961C63.7575 19.2343 65.0623 19.5351 66.324 19.8906Z" fill="black"/>
<path d="M81.281 27.66C81.7068 28.0311 82.2615 28.2108 82.824 28.16C83.3865 28.1092 83.9021 27.8358 84.2576 27.3983C84.6131 26.9608 84.7771 26.4022 84.7107 25.8397C84.6443 25.2811 84.3552 24.7733 83.9099 24.4295C81.4919 22.4647 78.8865 20.7498 76.1247 19.3123C75.6325 19.0389 75.0505 18.9764 74.5114 19.1365C73.9724 19.3006 73.5192 19.6717 73.2614 20.1717C72.9997 20.6717 72.9528 21.2537 73.1325 21.7889C73.3083 22.3241 73.695 22.7616 74.1989 23.0077C76.7106 24.3163 79.0818 25.8749 81.281 27.66Z" fill="black"/>
<path d="M90.504 31.008C89.7735 30.1174 88.461 29.9846 87.5704 30.715C86.6798 31.4416 86.547 32.7541 87.2774 33.6447C89.0665 35.8361 90.6329 38.2033 91.9454 40.7111C92.1954 41.2111 92.6368 41.59 93.1681 41.7619C93.6994 41.9338 94.2775 41.883 94.7736 41.6252C95.2658 41.3674 95.6369 40.9182 95.8009 40.3869C95.965 39.8517 95.9025 39.2736 95.6368 38.7814C94.1954 36.0236 92.4727 33.4181 90.504 31.008Z" fill="black"/>
<path d="M95.082 48.586C95.4414 49.8516 95.7461 51.1563 95.9843 52.4493C96.164 53.4376 97.0273 54.1563 98.0312 54.1563C98.1562 54.1563 98.2851 54.1446 98.4101 54.1211C98.9531 54.0235 99.4335 53.711 99.746 53.2579C100.062 52.8008 100.184 52.2423 100.082 51.6993C99.8203 50.2735 99.4882 48.8399 99.0898 47.4454C98.7773 46.336 97.625 45.6954 96.5195 46.0118C95.4101 46.3243 94.7695 47.4766 95.082 48.5821V48.586Z" fill="black"/>
<path d="M55 24.582C53.8477 24.582 52.918 25.5156 52.918 26.6679V59.9999C52.918 60.5507 53.1367 61.0819 53.5274 61.4726C53.918 61.8633 54.4492 62.082 55 62.082H88.332C89.4843 62.082 90.4179 61.1523 90.4179 60C90.4179 58.8477 89.4844 57.918 88.332 57.918H57.0821V26.668C57.0821 26.1133 56.8633 25.586 56.4727 25.1953C56.082 24.8047 55.5508 24.582 55 24.582Z" fill="black"/>
</svg>
