<svg width="196" height="182" viewBox="0 0 196 182" fill="none" xmlns="http://www.w3.org/2000/svg">
<path d="M26 139.5L8.5 116L3 128L8.5 139.5H26Z" fill="white" stroke="white"/>
<path d="M183.5 141.5H170L172 134L188 120L195 130L183.5 141.5Z" fill="white"/>
<path d="M53 170L57 152L76.5 157.5L90 152L102 157.5H126L141 147L148.5 152L153 164.5L148.5 175L134.5 181H113.5L102 175L95 181H70L53 170Z" fill="white"/>
<path d="M21.148 50.9612C-2.85198 58.5612 3.48136 88.4612 9.64801 102.461C5.64803 114.461 15.648 123.794 21.148 126.961C21.148 146.561 43.8147 153.794 55.148 154.961C67.148 160.961 82.4813 157.461 88.648 154.961C111.048 167.361 131.648 155.128 139.148 147.461C158.348 152.661 168.481 140.294 171.148 133.461C196.748 123.061 194.481 98.4612 190.148 87.4612C199.348 65.8612 186.315 51.1279 178.648 46.4612C172.648 15.6612 149.815 15.2945 139.148 18.9612C125.948 1.76123 109.981 7.46123 103.648 12.4612C68.048 -7.93878 51.4813 13.2945 47.648 26.4612C28.048 23.2612 21.8147 41.4612 21.148 50.9612Z" fill="white" stroke="white"/>
<path d="M128 88L138 83L146.5 82L150.5 88L138 96H128V88Z" fill="#FBAEAE" stroke="white"/>
<path fill-rule="evenodd" clip-rule="evenodd" d="M67.785 1.32654C57.509 4.18554 48.3 11.7745 45.757 19.4795C44.749 22.5355 44.243 22.8975 40.957 22.9175C30.68 22.9785 18.877 34.5135 18.807 44.5635C18.79 47.0825 18.081 48.1675 15.355 49.8525C7.79001 54.5275 1.25202 65.1575 0.133015 74.6005C-0.547985 80.3505 1.58602 89.5955 5.27302 96.8725C8.29202 102.83 7.94702 108.323 4.20402 113.902C0.676015 119.159 -0.533984 123.494 0.210016 128.205C1.71702 137.738 9.95102 144.301 19.753 143.781C24.019 143.554 25.192 143.911 27.531 146.148C31.331 149.783 40.607 153.851 46.759 154.579C50.947 155.075 51.768 155.481 51.234 156.791C50.875 157.674 50.373 161.096 50.119 164.396C49.528 172.088 51.822 176.109 58.562 179.195C62.807 181.138 65.006 181.359 80.285 181.377C91.433 181.389 97.982 180.995 99.311 180.231C100.853 179.344 101.808 179.344 103.311 180.231C106.223 181.95 135.956 181.782 142.049 180.012C147.942 178.3 152.74 173.252 152.886 168.611C153.081 162.426 152.607 158.715 151.188 155.319C150.018 152.517 150 151.896 151.09 151.896C154.667 151.896 163.181 148.488 166.178 145.856C169.185 143.216 170.027 142.967 174.088 143.524C176.588 143.867 180.252 143.843 182.231 143.472C186.277 142.713 192.154 138.016 194.336 133.797C196.162 130.265 196.155 121.187 194.322 117.896C193.31 116.078 193.078 113.212 193.47 107.396C193.851 101.74 193.538 97.5985 192.4 93.2625C190.92 87.6235 190.921 86.7785 192.405 82.7625C193.366 80.1625 194.025 75.2725 194.034 70.6755C194.047 64.3185 193.578 61.9925 191.377 57.4945C189.907 54.4905 187.22 50.7285 185.404 49.1345C182.715 46.7725 181.989 45.2655 181.482 40.9885C180.217 30.3025 173.132 19.7655 164.252 15.3625C161.215 13.8565 157.927 13.3495 150.233 13.2005C140.244 13.0065 140.157 12.9825 136.504 9.53754C129.252 2.69854 115.458 0.940536 107.213 5.80554L103.656 7.90454L99.47 5.48554C90.343 0.210536 77.741 -1.44346 67.785 1.32654ZM89.394 7.37154C92.128 8.18454 96.147 10.1965 98.325 11.8445C102.987 15.3705 104.84 15.5965 107.251 12.9335C113.505 6.02254 130.185 8.53154 135.275 17.1485C136.872 19.8515 137.187 19.9525 141.62 19.1935C153.68 17.1295 162.042 19.2715 168.423 26.0575C172.954 30.8765 174.931 35.3895 175.542 42.3075C176.042 47.9695 176.417 48.7305 180.916 53.1845C188.8 60.9915 190.66 71.6695 186.115 83.0285C184.678 86.6215 184.682 87.4665 186.163 92.7455C190.672 108.817 185.959 121.222 173.134 127.037C167.583 129.554 166.785 130.26 166.781 132.656C166.776 136.712 163.534 141.303 159.153 143.46C155.1 145.456 145.875 145.934 140.488 144.427C138.018 143.736 137.276 144.131 134.131 147.805C128.062 154.895 124.063 156.393 111.201 156.395C100.759 156.396 99.768 156.216 94.087 153.289L88.057 150.181L84.171 152.533C81.277 154.285 78.801 154.887 74.469 154.891C68.344 154.896 65.768 153.998 61.965 150.531C60.019 148.757 58.638 148.469 53.379 148.739C45.68 149.135 40.702 147.864 34.465 143.908C29.245 140.598 25.846 134.839 25.807 129.241C25.788 126.486 25.119 125.711 20.521 123.116C12.901 118.816 10.898 113.871 13.506 105.797C14.956 101.306 14.955 100.741 13.484 99.1155C12.601 98.1395 10.623 94.6535 9.08802 91.3685C5.41202 83.4995 5.16102 72.6055 8.51002 66.2795C11.837 59.9945 15.384 56.2675 20.308 53.8845C24.769 51.7255 24.785 51.6975 24.785 46.4565C24.785 42.1865 25.356 40.4075 27.815 37.0125C32.132 31.0545 36.129 28.9035 42.899 28.8995L48.513 28.8955L50.283 24.1455C52.38 18.5145 55.937 13.4975 59.474 11.1795C67.071 6.20254 79.939 4.56454 89.394 7.37154ZM62.82 69.8295C61.431 72.4255 61.511 76.2215 62.985 77.6955C63.645 78.3555 65.58 78.8955 67.285 78.8955C68.99 78.8955 70.925 78.3555 71.585 77.6955C72.245 77.0355 72.785 75.1005 72.785 73.3955C72.785 69.4275 71.207 67.8955 67.12 67.8955C64.916 67.8955 63.519 68.5235 62.82 69.8295ZM124.118 70.5105C122.583 72.8525 122.558 73.4015 123.876 75.7605C126.714 80.8425 134.785 79.1545 134.785 73.4795C134.785 68.0265 127.139 65.8985 124.118 70.5105ZM93.135 79.4545C91.067 81.5225 90.695 82.6265 91.197 85.2045C91.928 88.9595 91.928 89.1445 91.169 94.5915C90.666 98.2055 90.947 99.1485 93.197 101.399C95.336 103.538 96.574 103.954 100.046 103.703C103.568 103.448 104.339 103.015 104.605 101.146C104.79 99.8365 104.372 98.8315 103.605 98.7435C102.879 98.6595 101.835 98.4865 101.285 98.3585C100.735 98.2305 99.498 98.0745 98.535 98.0105C95.896 97.8365 96.422 94.3825 99.285 93.0775C102.527 91.6005 102.455 89.5505 99.073 87.0865C96.755 85.3985 96.552 84.8805 97.678 83.5245C98.692 82.3025 99.449 82.1805 100.968 82.9935C103.568 84.3845 105.785 83.4495 105.785 80.9625C105.785 76.4205 97.193 75.3965 93.135 79.4545ZM134.785 79.9215C125.115 83.3565 121.73 90.6805 127.369 95.9715C134.075 102.264 153.785 94.9605 153.785 86.1835C153.785 84.8175 152.497 82.4535 150.862 80.8185C147.313 77.2705 142.937 77.0255 134.785 79.9215ZM147.229 84.8055C148.904 87.5155 143.4 91.1275 135.546 92.4735C132.574 92.9825 131.673 92.7675 131.159 91.4275C130.795 90.4775 131.163 89.0895 132.001 88.2505C135.146 85.1055 145.91 82.6705 147.229 84.8055ZM10.155 122.337C11.034 123.68 13.735 126.142 16.157 127.808C19.691 130.239 20.641 131.533 20.971 134.366C21.378 137.854 21.338 137.896 17.619 137.896C10.375 137.896 4.35402 129.732 6.19402 122.403C6.98602 119.247 8.11701 119.228 10.155 122.337ZM189.563 129.444C187.879 134.556 182.968 137.896 177.137 137.896C173.464 137.896 172.785 137.587 172.785 135.913C172.785 134.548 174.285 133.169 177.599 131.49C180.247 130.148 183.959 127.316 185.849 125.197C189.1 121.551 189.327 121.457 190.063 123.454C190.512 124.672 190.3 127.208 189.563 129.444ZM144.522 155.523C145.768 157.78 147.055 161.6 147.383 164.011C148.679 173.537 142.091 176.276 119.217 175.723C103.897 175.352 103.661 175.229 103.951 167.773L104.131 163.15L113.453 162.663C121.337 162.25 123.779 161.681 129.281 158.972C132.859 157.211 136.574 154.679 137.536 153.347C139.914 150.053 141.835 150.652 144.522 155.523ZM63.204 158.4C69.293 161.489 78.265 161.764 84.285 159.046C88.242 157.26 88.342 157.267 93.535 159.634L98.785 162.028V167.987C98.785 173.463 98.577 174.024 96.22 174.921C93.023 176.136 69.637 176.162 64.438 174.956C58.92 173.675 55.785 170.384 55.785 165.871C55.785 162.941 57.447 155.881 58.133 155.9C58.217 155.902 60.499 157.027 63.204 158.4Z" fill="black"/>
</svg>
